<svg xmlns="http://www.w3.org/2000/svg" viewBox="0 0 345.88 318.79"><defs><style>.cls-1,.cls-4,.cls-7{fill:#171810;}.cls-2,.cls-5,.cls-6{fill:#07dac0;}.cls-3{fill:#ce2380;}.cls-3,.cls-4,.cls-5,.cls-7,.cls-8{stroke:#07dac0;}.cls-3,.cls-4,.cls-5,.cls-6,.cls-7,.cls-8{stroke-miterlimit:10;}.cls-6{stroke:#171810;}.cls-6,.cls-7{stroke-width:8px;}.cls-8{fill:#fff;}</style></defs><title>Asset 1</title><g id="Layer_2" data-name="Layer 2"><g id="color"><path class="cls-1" d="M173.81,318.29c-75,0-136-61-136-136,0-28.64,9.65-56.49,27.91-80.55,16.61-21.88,39.11-38.9,63.37-47.91a120.44,120.44,0,0,1,41-7.59c1.24,0,2.44,0,3.67.08,30.34,1.24,63.74,15.12,89.33,37.12,21.29,18.3,46.67,50.31,46.67,98.85C309.78,257.29,248.78,318.29,173.81,318.29Z"/><path class="cls-2" d="M170.11,45.77v1c1.64,0,2.87,0,3.65.07,30.24,1.24,63.51,15.07,89,37a136.09,136.09,0,0,1,33.3,42.07,124.46,124.46,0,0,1,13.19,56.4A135.47,135.47,0,0,1,78,278.11a134.58,134.58,0,0,1-39.68-95.79c0-28.53,9.62-56.27,27.81-80.25,16.55-21.81,39-38.76,63.14-47.74a119.93,119.93,0,0,1,40.83-7.56v-1m0,0a120.25,120.25,0,0,0-41.17,7.62C81.5,71,37.34,121,37.34,182.32a136.47,136.47,0,0,0,272.94,0c0-85-79.42-134.13-136.47-136.47-.82,0-2.07-.08-3.69-.08Z"/><polygon class="cls-3" points="173.94 0.89 0.94 255.39 344.94 255.39 173.94 0.89"/><polygon class="cls-4" points="174.5 74.87 77.62 217.39 270.26 217.39 174.5 74.87"/><ellipse class="cls-5" cx="280.94" cy="219.84" rx="29" ry="35.56"/><path class="cls-3" d="M251.94,219.39s28-45,58,0C309.94,219.39,285.94,258.39,251.94,219.39Z"/><circle class="cls-6" cx="280.94" cy="218.39" r="9.9"/><ellipse class="cls-4" cx="65.94" cy="219.84" rx="29" ry="35.56"/><path class="cls-3" d="M36.94,219.39s28-45,58,0C94.94,219.39,70.94,258.39,36.94,219.39Z"/><circle class="cls-6" cx="65.94" cy="218.39" r="9.9"/><ellipse class="cls-3" cx="173.94" cy="58.84" rx="29" ry="35.56"/><path class="cls-4" d="M144.94,58.39s28-45,58,0C202.94,58.39,178.94,97.39,144.94,58.39Z"/><circle class="cls-7" cx="173.94" cy="57.39" r="9.9"/><circle class="cls-5" cx="173.94" cy="166.39" r="51.92"/><circle class="cls-4" cx="174.26" cy="167.05" r="41.54"/><polygon class="cls-3" points="174.08 148.76 149.86 184.39 198.02 184.39 174.08 148.76"/><line class="cls-4" x1="173.94" y1="148.39" x2="173.94" y2="125.39"/><line class="cls-4" x1="197.94" y1="184.39" x2="207.86" y2="191.47"/><line class="cls-4" x1="149.94" y1="184.39" x2="140.67" y2="191.47"/><line class="cls-8" x1="130.91" y1="52.68" x2="132.73" y2="61.53"/><line class="cls-8" x1="125.05" y1="54.92" x2="128.81" y2="67.29"/><line class="cls-8" x1="119.41" y1="57.39" x2="125.05" y2="72.82"/><line class="cls-8" x1="112.07" y1="61.11" x2="119.41" y2="81.12"/><line class="cls-8" x1="105.19" y1="65.11" x2="113.68" y2="89.55"/><line class="cls-8" x1="96.29" y1="71.11" x2="107.21" y2="99.07"/><line class="cls-8" x1="86.26" y1="79.11" x2="99.1" y2="111"/><line class="cls-8" x1="75.42" y1="89.55" x2="89.31" y2="125.39"/><line class="cls-8" x1="67.21" y1="99.07" x2="81.5" y2="136.89"/><line class="cls-8" x1="59.73" y1="109.41" x2="75.84" y2="145.21"/><line class="cls-8" x1="51.89" y1="122.86" x2="67.79" y2="157.06"/><line class="cls-8" x1="45.68" y1="136.89" x2="59.94" y2="166.39"/><line class="cls-8" x1="41.08" y1="151.64" x2="54.19" y2="177.06"/><line class="cls-8" x1="38.34" y1="166.39" x2="47.64" y2="186.7"/><line class="cls-8" x1="215.91" y1="54.92" x2="215.8" y2="61.53"/><line class="cls-8" x1="222.05" y1="57.39" x2="219.44" y2="68.61"/><line class="cls-8" x1="225.86" y1="59.08" x2="222.27" y2="72.82"/><line class="cls-8" x1="233.83" y1="63" x2="227.85" y2="81.12"/><line class="cls-8" x1="241.46" y1="67.29" x2="233.51" y2="89.55"/><line class="cls-8" x1="248.96" y1="72.06" x2="239.91" y2="99.07"/><line class="cls-8" x1="256.32" y1="77.33" x2="244.44" y2="105.82"/><line class="cls-8" x1="264.12" y1="83.69" x2="248.96" y2="112.54"/><line class="cls-8" x1="272.51" y1="91.57" x2="255.9" y2="122.86"/><line class="cls-8" x1="278.56" y1="98.11" x2="261.5" y2="131.19"/><line class="cls-8" x1="284.77" y1="105.82" x2="267.39" y2="139.96"/><line class="cls-8" x1="292.89" y1="117.98" x2="275.23" y2="151.64"/><line class="cls-8" x1="298.28" y1="128.14" x2="280.94" y2="160.14"/><line class="cls-8" x1="303.82" y1="141.93" x2="286.94" y2="169.07"/><line class="cls-8" x1="307.83" y1="157.06" x2="292.89" y2="177.06"/><line class="cls-8" x1="309.62" y1="169.07" x2="298.28" y2="184.39"/><line class="cls-8" x1="309.94" y1="182.39" x2="303.82" y2="194.19"/><line class="cls-8" x1="69.02" y1="269.75" x2="69.02" y2="255.39"/><line class="cls-8" x1="74.35" y1="275.76" x2="74.35" y2="255.39"/><line class="cls-8" x1="79.45" y1="280.91" x2="79.45" y2="255.39"/><line class="cls-8" x1="84.38" y1="285.4" x2="84.38" y2="255.39"/><line class="cls-8" x1="89.31" y1="289.49" x2="89.31" y2="255.39"/><line class="cls-8" x1="94.94" y1="293.71" x2="94.94" y2="255.39"/><line class="cls-8" x1="101.75" y1="298.23" x2="101.75" y2="255.39"/><line class="cls-8" x1="109.43" y1="302.68" x2="109.43" y2="255.39"/><line class="cls-8" x1="117.38" y1="306.61" x2="117.38" y2="255.39"/><line class="cls-8" x1="125.05" y1="309.82" x2="125.05" y2="255.39"/><line class="cls-8" x1="132.73" y1="312.5" x2="132.94" y2="255.39"/><line class="cls-8" x1="142.63" y1="315.21" x2="142.63" y2="255.39"/><line class="cls-8" x1="151.84" y1="317.02" x2="151.84" y2="255.39"/><line class="cls-8" x1="160.42" y1="318.14" x2="159.94" y2="255.39"/><line class="cls-8" x1="169.44" y1="255.39" x2="169.44" y2="318.79"/><line class="cls-8" x1="179.95" y1="318.65" x2="178.44" y2="255.39"/><line class="cls-8" x1="192.44" y1="317.02" x2="190.44" y2="255.39"/><line class="cls-8" x1="202.9" y1="315.67" x2="202.94" y2="255.39"/><line class="cls-8" x1="214.89" y1="312.5" x2="212.94" y2="255.39"/><line class="cls-8" x1="224.07" y1="309.23" x2="222.27" y2="255.39"/><line class="cls-8" x1="233.83" y1="304.91" x2="230.84" y2="255.39"/><line class="cls-8" x1="244.44" y1="299.11" x2="241.46" y2="255.39"/><line class="cls-8" x1="254.28" y1="292.54" x2="251.94" y2="255.39"/><line class="cls-8" x1="264.2" y1="283.94" x2="261.5" y2="255.39"/><line class="cls-8" x1="270.26" y1="278.86" x2="267.39" y2="255.39"/><line class="cls-8" x1="278.04" y1="270.4" x2="275.23" y2="255.39"/></g></g></svg>