<svg xmlns="http://www.w3.org/2000/svg" xmlns:xlink="http://www.w3.org/1999/xlink" viewBox="0 0 506.08 529.79"><defs><style>.cls-1{fill:url(#linear-gradient);}.cls-11,.cls-2,.cls-4,.cls-5,.cls-6{stroke-miterlimit:10;}.cls-2{fill:url(#linear-gradient-2);stroke:url(#linear-gradient-3);}.cls-3{fill:url(#linear-gradient-4);}.cls-4{fill:url(#linear-gradient-5);stroke:url(#linear-gradient-6);}.cls-11,.cls-5{stroke:#000;}.cls-5{fill:url(#linear-gradient-7);}.cls-6{fill:url(#linear-gradient-8);stroke:url(#linear-gradient-9);}.cls-7{fill:none;}.cls-8{fill:#fbc55c;}.cls-9{fill:url(#linear-gradient-10);}.cls-10{fill:url(#linear-gradient-11);}.cls-11{fill:url(#radial-gradient);}.cls-12{fill:#f7f095;}.cls-13{fill:url(#linear-gradient-12);}.cls-14{fill:url(#radial-gradient-2);}.cls-15{fill:url(#radial-gradient-3);}.cls-16{fill:url(#linear-gradient-13);}.cls-17{fill:url(#linear-gradient-14);}.cls-18{fill:url(#linear-gradient-15);}.cls-19{opacity:0.8;fill:url(#radial-gradient-4);}.cls-20{fill:url(#linear-gradient-16);}.cls-21{fill:url(#linear-gradient-17);}.cls-22{fill:url(#linear-gradient-18);}.cls-23{fill:#25509f;}.cls-24{fill:url(#linear-gradient-19);}.cls-25{fill:url(#linear-gradient-20);}.cls-26{fill:url(#linear-gradient-21);}.cls-27{fill:url(#linear-gradient-22);}.cls-28{fill:url(#linear-gradient-23);}.cls-29{fill:url(#linear-gradient-24);}.cls-30{fill:url(#linear-gradient-25);}.cls-31{fill:url(#linear-gradient-26);}.cls-32{fill:url(#linear-gradient-27);}.cls-33{fill:url(#linear-gradient-28);}.cls-34{fill:url(#linear-gradient-29);}.cls-35{fill:url(#linear-gradient-30);}.cls-36{fill:url(#linear-gradient-31);}.cls-37{fill:url(#linear-gradient-32);}.cls-38{fill:url(#linear-gradient-33);}.cls-39{fill:url(#linear-gradient-34);}.cls-40{fill:url(#linear-gradient-35);}.cls-41{fill:url(#linear-gradient-36);}.cls-42{fill:url(#linear-gradient-37);}.cls-43{fill:url(#linear-gradient-38);}.cls-44{fill:url(#linear-gradient-39);}</style><linearGradient id="linear-gradient" x1="28.79" y1="204.23" x2="507.25" y2="480.47" gradientUnits="userSpaceOnUse"><stop offset="0" stop-color="#e6999f" stop-opacity="0.5"/><stop offset="0.61" stop-color="#7e578f" stop-opacity="0.79"/><stop offset="1" stop-color="#332783"/></linearGradient><linearGradient id="linear-gradient-2" x1="6.75" y1="111.5" x2="497.25" y2="111.5" gradientUnits="userSpaceOnUse"><stop offset="0" stop-color="#e8a19f"/><stop offset="0.03" stop-color="#dd9a9d"/><stop offset="0.21" stop-color="#aa7795"/><stop offset="0.39" stop-color="#7f5a8f"/><stop offset="0.56" stop-color="#5e448a"/><stop offset="0.72" stop-color="#463486"/><stop offset="0.87" stop-color="#382a84"/><stop offset="1" stop-color="#332783"/></linearGradient><linearGradient id="linear-gradient-3" x1="6.25" x2="497.75" xlink:href="#linear-gradient-2"/><linearGradient id="linear-gradient-4" x1="31" y1="120.73" x2="476" y2="120.73" xlink:href="#linear-gradient-2"/><linearGradient id="linear-gradient-5" x1="141.05" y1="133.5" x2="364" y2="133.5" xlink:href="#linear-gradient-2"/><linearGradient id="linear-gradient-6" x1="140.54" y1="133.5" x2="364.5" y2="133.5" gradientUnits="userSpaceOnUse"><stop offset="0" stop-color="#332783"/><stop offset="0.13" stop-color="#382a84"/><stop offset="0.28" stop-color="#463486"/><stop offset="0.44" stop-color="#5e448a"/><stop offset="0.61" stop-color="#7f5a8f"/><stop offset="0.79" stop-color="#aa7795"/><stop offset="0.97" stop-color="#dd9a9d"/><stop offset="1" stop-color="#e8a19f"/></linearGradient><linearGradient id="linear-gradient-7" x1="477.9" y1="90.43" x2="484.05" y2="90.43" xlink:href="#linear-gradient-2"/><linearGradient id="linear-gradient-8" x1="192.64" y1="169.63" x2="250.69" y2="169.63" xlink:href="#linear-gradient-2"/><linearGradient id="linear-gradient-9" x1="192.61" y1="169.63" x2="250.71" y2="169.63" xlink:href="#linear-gradient-2"/><linearGradient id="linear-gradient-10" x1="141" y1="116.25" x2="389.75" y2="116.25" gradientUnits="userSpaceOnUse"><stop offset="0" stop-color="#332783"/><stop offset="0.4" stop-color="#352883"/><stop offset="0.54" stop-color="#3c2d84"/><stop offset="0.65" stop-color="#473586"/><stop offset="0.73" stop-color="#584089"/><stop offset="0.8" stop-color="#6e4f8c"/><stop offset="0.86" stop-color="#8a6190"/><stop offset="0.92" stop-color="#aa7795"/><stop offset="0.97" stop-color="#ce909b"/><stop offset="1" stop-color="#e8a19f"/></linearGradient><linearGradient id="linear-gradient-11" x1="20" y1="66.55" x2="483.9" y2="66.55" gradientUnits="userSpaceOnUse"><stop offset="0" stop-color="#e8a19f"/><stop offset="1" stop-color="#332783"/></linearGradient><radialGradient id="radial-gradient" cx="149.63" cy="124.39" r="1.07" gradientUnits="userSpaceOnUse"><stop offset="0" stop-color="#fbc55c"/><stop offset="0.55" stop-color="#f7a658"/><stop offset="1" stop-color="#f49255"/></radialGradient><linearGradient id="linear-gradient-12" y1="303.76" x2="506.08" y2="303.76" gradientUnits="userSpaceOnUse"><stop offset="0" stop-color="#b94b95" stop-opacity="0.5"/><stop offset="0.15" stop-color="#984291" stop-opacity="0.62"/><stop offset="0.46" stop-color="#613389" stop-opacity="0.83"/><stop offset="0.75" stop-color="#3f2a85" stop-opacity="0.96"/><stop offset="1" stop-color="#332783"/></linearGradient><radialGradient id="radial-gradient-2" cx="253.4" cy="120.73" r="75.4" xlink:href="#radial-gradient"/><radialGradient id="radial-gradient-3" cx="198.25" cy="23.51" r="43.76" gradientUnits="userSpaceOnUse"><stop offset="0" stop-color="#4c759f"/><stop offset="1" stop-color="#4c759f" stop-opacity="0.6"/></radialGradient><linearGradient id="linear-gradient-13" x1="244.34" y1="482.5" x2="244.34" y2="169.27" gradientUnits="userSpaceOnUse"><stop offset="0.12" stop-color="#322783" stop-opacity="0.5"/><stop offset="0.19" stop-color="#2e348c" stop-opacity="0.56"/><stop offset="0.29" stop-color="#25509f" stop-opacity="0.71"/><stop offset="0.44" stop-color="#64689f" stop-opacity="0.74"/><stop offset="0.72" stop-color="#e6999f" stop-opacity="0.8"/></linearGradient><linearGradient id="linear-gradient-14" x1="361.11" y1="482.5" x2="361.11" y2="169.66" gradientUnits="userSpaceOnUse"><stop offset="0" stop-color="#332783"/><stop offset="0.39" stop-color="#7e578f" stop-opacity="0.79"/><stop offset="1" stop-color="#e6999f" stop-opacity="0.5"/></linearGradient><linearGradient id="linear-gradient-15" x1="291.33" y1="322.71" x2="506.08" y2="322.71" xlink:href="#linear-gradient"/><radialGradient id="radial-gradient-4" cx="304.08" cy="23.18" r="37.87" gradientUnits="userSpaceOnUse"><stop offset="0" stop-color="#4c759f" stop-opacity="0.6"/><stop offset="0.4" stop-color="#4c759f"/></radialGradient><linearGradient id="linear-gradient-16" x1="316" y1="31.37" x2="352.67" y2="31.37" gradientUnits="userSpaceOnUse"><stop offset="0" stop-color="#4c759f" stop-opacity="0.6"/><stop offset="1" stop-color="#4c759f"/></linearGradient><linearGradient id="linear-gradient-17" x1="228.64" y1="410.53" x2="89.68" y2="271.57" gradientUnits="userSpaceOnUse"><stop offset="0" stop-color="#332783"/><stop offset="0.15" stop-color="#533b88" stop-opacity="0.91"/><stop offset="0.71" stop-color="#bd7f99" stop-opacity="0.61"/><stop offset="1" stop-color="#e6999f" stop-opacity="0.5"/></linearGradient><linearGradient id="linear-gradient-18" y1="482.5" x2="506.08" y2="482.5" gradientUnits="userSpaceOnUse"><stop offset="0" stop-color="#322783"/><stop offset="0.11" stop-color="#583f89"/><stop offset="0.36" stop-color="#b67b98"/><stop offset="0.47" stop-color="#e6999f"/><stop offset="0.87" stop-color="#5e438a"/><stop offset="1" stop-color="#332783"/></linearGradient><linearGradient id="linear-gradient-19" x1="321.94" y1="268.62" x2="321.94" y2="212.3" gradientTransform="translate(163.36 -128.75) rotate(30)" gradientUnits="userSpaceOnUse"><stop offset="0" stop-color="#e6999f" stop-opacity="0.5"/><stop offset="0.11" stop-color="#edb6ba" stop-opacity="0.56"/><stop offset="0.24" stop-color="#f4d0d3" stop-opacity="0.61"/><stop offset="0.38" stop-color="#f9e5e7" stop-opacity="0.66"/><stop offset="0.53" stop-color="#fcf4f4" stop-opacity="0.69"/><stop offset="0.72" stop-color="#fefcfd" stop-opacity="0.7"/><stop offset="0.99" stop-color="#fff" stop-opacity="0.71"/></linearGradient><linearGradient id="linear-gradient-20" x1="349.45" y1="289.4" x2="349.45" y2="231.72" gradientTransform="translate(159.82 -131.93) rotate(27.5)" xlink:href="#linear-gradient-19"/><linearGradient id="linear-gradient-21" x1="192.63" y1="285.64" x2="192.63" y2="221.45" gradientTransform="translate(404.8 30.33) rotate(80.92)" xlink:href="#linear-gradient-19"/><linearGradient id="linear-gradient-22" x1="200.66" y1="314.89" x2="200.66" y2="253.07" gradientTransform="translate(408.51 5.22) rotate(71.95)" xlink:href="#linear-gradient-19"/><linearGradient id="linear-gradient-23" x1="256.47" y1="304.33" x2="256.47" y2="197.88" gradientTransform="translate(-36.17 42.37) rotate(-9.08)" gradientUnits="userSpaceOnUse"><stop offset="0" stop-color="#e6999f" stop-opacity="0.5"/><stop offset="0.2" stop-color="#e79da3" stop-opacity="0.51"/><stop offset="0.39" stop-color="#eaa8ad" stop-opacity="0.53"/><stop offset="0.58" stop-color="#eebbbf" stop-opacity="0.57"/><stop offset="0.77" stop-color="#f5d6d8" stop-opacity="0.62"/><stop offset="0.96" stop-color="#fdf7f8" stop-opacity="0.69"/><stop offset="0.99" stop-color="#fff" stop-opacity="0.71"/></linearGradient><linearGradient id="linear-gradient-24" x1="184.83" y1="147.48" x2="184.83" y2="139.48" gradientUnits="userSpaceOnUse"><stop offset="0" stop-color="#e6999f" stop-opacity="0.5"/><stop offset="0.02" stop-color="#eaabb0" stop-opacity="0.54"/><stop offset="0.06" stop-color="#f1c5c8" stop-opacity="0.59"/><stop offset="0.1" stop-color="#f6dbdd" stop-opacity="0.63"/><stop offset="0.15" stop-color="#faebec" stop-opacity="0.67"/><stop offset="0.21" stop-color="#fdf7f7" stop-opacity="0.69"/><stop offset="0.3" stop-color="#fffdfd" stop-opacity="0.71"/><stop offset="0.54" stop-color="#fff" stop-opacity="0.71"/></linearGradient><linearGradient id="linear-gradient-25" x1="184.83" y1="174.46" x2="184.83" y2="157.21" gradientTransform="translate(350.66 -18.99) rotate(90)" gradientUnits="userSpaceOnUse"><stop offset="0" stop-color="#e6999f" stop-opacity="0.5"/><stop offset="0.12" stop-color="#e79da3" stop-opacity="0.51"/><stop offset="0.23" stop-color="#eaa8ad" stop-opacity="0.53"/><stop offset="0.34" stop-color="#eebbbf" stop-opacity="0.57"/><stop offset="0.45" stop-color="#f5d6d8" stop-opacity="0.62"/><stop offset="0.55" stop-color="#fdf7f8" stop-opacity="0.69"/><stop offset="0.57" stop-color="#fff" stop-opacity="0.71"/></linearGradient><linearGradient id="linear-gradient-26" x1="156.67" y1="175.52" x2="156.67" y2="163.02" gradientUnits="userSpaceOnUse"><stop offset="0" stop-color="#e6999f" stop-opacity="0.5"/><stop offset="0.1" stop-color="#e79da3" stop-opacity="0.51"/><stop offset="0.2" stop-color="#eaa8ad" stop-opacity="0.53"/><stop offset="0.3" stop-color="#eebbbf" stop-opacity="0.57"/><stop offset="0.4" stop-color="#f5d6d8" stop-opacity="0.62"/><stop offset="0.49" stop-color="#fdf7f8" stop-opacity="0.69"/><stop offset="0.51" stop-color="#fff" stop-opacity="0.71"/></linearGradient><linearGradient id="linear-gradient-27" x1="166.87" y1="205.3" x2="166.87" y2="186.63" gradientTransform="translate(362.84 29.09) rotate(90)" xlink:href="#linear-gradient-23"/><linearGradient id="linear-gradient-28" x1="332" y1="176.09" x2="332" y2="155.58" gradientTransform="translate(127.4 -143.78) rotate(30)" gradientUnits="userSpaceOnUse"><stop offset="0" stop-color="#f6d884" stop-opacity="0.8"/><stop offset="0.13" stop-color="#f6da8a" stop-opacity="0.8"/><stop offset="0.25" stop-color="#f8e09d" stop-opacity="0.78"/><stop offset="0.36" stop-color="#faeabd" stop-opacity="0.76"/><stop offset="0.48" stop-color="#fdf8e9" stop-opacity="0.73"/><stop offset="0.53" stop-color="#fff" stop-opacity="0.71"/><stop offset="0.59" stop-color="#fff" stop-opacity="0.71"/></linearGradient><linearGradient id="linear-gradient-29" x1="304.08" y1="173.88" x2="304.08" y2="151.96" gradientTransform="translate(64.22 -85.02) rotate(17.77)" xlink:href="#linear-gradient-28"/><linearGradient id="linear-gradient-30" x1="316" y1="193.45" x2="316" y2="174.89" gradientTransform="translate(48.21 -64.96) rotate(12.7)" xlink:href="#linear-gradient-28"/><linearGradient id="linear-gradient-31" x1="244.34" y1="136.23" x2="244.34" y2="128.23" gradientUnits="userSpaceOnUse"><stop offset="0" stop-color="#f6d884" stop-opacity="0.8"/><stop offset="0.02" stop-color="#f6da8a" stop-opacity="0.8"/><stop offset="0.04" stop-color="#f8e09d" stop-opacity="0.78"/><stop offset="0.06" stop-color="#faeabd" stop-opacity="0.76"/><stop offset="0.08" stop-color="#fdf8e9" stop-opacity="0.73"/><stop offset="0.09" stop-color="#fff" stop-opacity="0.71"/><stop offset="0.59" stop-color="#fff" stop-opacity="0.71"/></linearGradient><linearGradient id="linear-gradient-32" x1="259.91" y1="131.34" x2="259.91" y2="118.7" gradientTransform="translate(97.33 -113.21) rotate(30)" xlink:href="#linear-gradient-31"/><linearGradient id="linear-gradient-33" x1="166.87" y1="141.13" x2="166.87" y2="125.87" xlink:href="#linear-gradient-31"/><linearGradient id="linear-gradient-34" x1="240.11" y1="185.03" x2="240.11" y2="166.01" gradientUnits="userSpaceOnUse"><stop offset="0" stop-color="#f6d884" stop-opacity="0.8"/><stop offset="0.11" stop-color="#f6da8a" stop-opacity="0.8"/><stop offset="0.21" stop-color="#f8e09d" stop-opacity="0.78"/><stop offset="0.31" stop-color="#faeabd" stop-opacity="0.76"/><stop offset="0.41" stop-color="#fdf8e9" stop-opacity="0.73"/><stop offset="0.45" stop-color="#fff" stop-opacity="0.71"/><stop offset="1" stop-color="#fff" stop-opacity="0.71"/></linearGradient><linearGradient id="linear-gradient-35" x1="268.15" y1="164.53" x2="268.15" y2="132.47" xlink:href="#linear-gradient-34"/><linearGradient id="linear-gradient-36" x1="224.86" y1="198.42" x2="224.86" y2="185.44" xlink:href="#linear-gradient-34"/><linearGradient id="linear-gradient-37" x1="263.79" y1="185.5" x2="263.79" y2="175" xlink:href="#linear-gradient-34"/><linearGradient id="linear-gradient-38" x1="216.64" y1="178.04" x2="216.64" y2="147.8" gradientTransform="translate(319.02 -88.06) rotate(75.25)" xlink:href="#linear-gradient-34"/><linearGradient id="linear-gradient-39" x1="234" y1="156.37" x2="234" y2="140.63" xlink:href="#linear-gradient-31"/></defs><title>naveweb</title><g id="Layer_2" data-name="Layer 2"><g id="Layer_4" data-name="Layer 4"><path class="cls-1" d="M506.08,482.5H0L127.29,175.83l5.18-12.48-13.14-2.73L61,148.5H443a415.89,415.89,0,0,1-47,10.76q-13,2.28-27.17,4.13l5.35,12.44Z"/><path class="cls-2" d="M252.5,96.5C192,96.5,142.74,105.58,141,116.9c.39,2.41,2.9,4.71,7.21,6.86.85.42,1.76.84,2.74,1.25h0c8,3.33,20.35,6.24,35.82,8.49,19.77,2.89,44.61,4.71,71.76,5l3,0,2.51,0,2.27,0,3.81-.1,3-.1L276,138c.94,0,1.88-.07,2.81-.12,1.68-.07,3.33-.16,5-.25l2.45-.14,2.42-.15c1-.06,2.08-.13,3.11-.21l.69,0,3.06-.23c1.12-.08,2.23-.18,3.33-.27h.07c1.13-.09,2.25-.19,3.35-.3,1.85-.17,3.67-.36,5.46-.55l2.42-.27,3.55-.42c1.17-.14,2.32-.3,3.46-.45l2.26-.31,2.21-.32,2.16-.33h0l.91-.15,1.18-.19,2-.34,2.66-.48c1.12-.21,2.23-.42,3.3-.64l1.3-.26,2.4-.52h0c1.43-.32,2.8-.65,4.12-1l1.21-.3.1,0,1.61-.43,2.41-.7.88-.27,1.71-.55.82-.28c.88-.3,1.73-.62,2.54-.93a40.26,40.26,0,0,0,5.54-2.6c3.54-2,5.45-4.23,5.45-6.5C364,105.9,314.08,96.5,252.5,96.5Zm238,1.21A47.35,47.35,0,0,0,484,92.36l-.15-.1c-1.82-1.27-3.83-2.53-6-3.76C454.65,75.3,412,64.56,358.55,58.35,345,56.77,330.78,55.49,316,54.53c-20.4-1.32-41.86-2-64-2-101.52,0-188.62,14.84-225.9,36L20,92.33c-8.59,6-13.25,12.46-13.25,19.17,0,14,20.31,26.88,54.22,37l58.36,12.12,13.14,2.73c18.47,2.46,38.62,4.35,60,5.57q4.73.27,9.53.5c15.18.71,30.91,1.08,47,1.08h1.69c-16.68,0-33-.44-48.7-1.23l-9.35-.52,21.53.65h0l36.5,1.1H252q13.3,0,26.24-.33,6.6-.18,13.09-.43c27.65-1.07,53.76-3.25,77.5-6.35Q383,161.54,396,159.26a415.89,415.89,0,0,0,47-10.76c22.42-6.68,38.89-14.57,47.48-23.2,4.42-4.43,6.75-9,6.75-13.8S494.91,102.13,490.5,97.71Z"/><path class="cls-3" d="M254,106.89c-54.9,0-99.58,8.38-101.11,18.82.35,2.22,2.63,4.35,6.54,6.33.77.39,1.6.78,2.49,1.15h0c7.24,3.07,18.46,5.76,32.5,7.83,17.94,2.67,40.47,4.35,65.1,4.59l2.69,0,2.28,0,2.06,0,3.46-.09,2.73-.09,2.58-.1,2.55-.11c1.52-.06,3-.15,4.51-.23l2.22-.13,2.2-.14,2.82-.19.63,0,2.78-.21,3-.25H296c1-.08,2-.18,3-.28,1.68-.16,3.33-.33,5-.51l2.2-.25,3.22-.39c1.06-.13,2.1-.28,3.14-.42l2.05-.29,2-.3,2-.3h0l.83-.14,1.07-.18,1.86-.31,2.41-.44c1-.19,2-.39,3-.59l1.18-.24,2.18-.48h0c1.3-.3,2.54-.6,3.74-.9l1.1-.28.09,0,1.46-.4,2.19-.65.8-.25,1.55-.51.74-.26c.8-.28,1.57-.57,2.3-.86a36.25,36.25,0,0,0,5-2.4c3.21-1.88,4.94-3.9,4.94-6C355.11,115.57,309.82,106.89,254,106.89ZM469.88,108a43.13,43.13,0,0,0-5.85-4.94l-.14-.09c-1.65-1.17-3.47-2.33-5.44-3.47-21.09-12.18-59.8-22.09-108.28-27.82-12.28-1.46-25.19-2.64-38.6-3.52-18.51-1.22-38-1.87-58.06-1.87C161.4,66.29,82.38,80,48.56,99.51L43,103c-7.79,5.54-12,11.5-12,17.69,0,12.93,18.43,24.8,49.19,34.14l52.95,11.18,11.92,2.52c16.76,2.27,35,4,54.41,5.14q4.29.25,8.65.46c13.77.66,28,1,42.67,1h1.53c-15.13,0-29.9-.41-44.18-1.13l-8.48-.48,19.53.6h0l33.11,1h1.19q12.07,0,23.81-.3,6-.17,11.88-.4c25.09-1,48.77-3,70.31-5.86q12.86-1.7,24.65-3.81a371.93,371.93,0,0,0,42.66-9.93c20.34-6.16,35.28-13.44,43.08-21.41,4-4.09,6.12-8.35,6.12-12.73S473.88,112.09,469.88,108Z"/><path class="cls-4" d="M252.5,96.5C192,96.5,142.74,105.58,141,116.9c.39,2.41,2.9,4.71,7.21,6.86.85.42,1.76.84,2.74,1.25h0c8,3.33,20.35,6.24,35.82,8.49,19.77,2.89,44.61,4.71,71.76,5l3,0,2.51,0,2.27,0,3.81-.1,3-.1L276,138c.94,0,1.88-.07,2.81-.12,1.68-.07,3.33-.16,5-.25l2.45-.14,2.42-.15c1-.06,2.08-.13,3.11-.21l.69,0,3.06-.23c1.12-.08,2.23-.18,3.33-.27h.07c1.13-.09,2.25-.19,3.35-.3,1.85-.17,3.67-.36,5.46-.55l2.42-.27,3.55-.42c1.17-.14,2.32-.3,3.46-.45l2.26-.31,2.21-.32,2.16-.33h0l.91-.15,1.18-.19,2-.34,2.66-.48c1.12-.21,2.23-.42,3.3-.64l1.3-.26,2.4-.52h0c1.43-.32,2.8-.65,4.12-1l1.21-.3.1,0,1.61-.43,2.41-.7.88-.27,1.71-.55.82-.28c.88-.3,1.73-.62,2.54-.93a40.26,40.26,0,0,0,5.54-2.6c3.54-2,5.45-4.23,5.45-6.5C364,105.9,314.08,96.5,252.5,96.5Zm-38.31,72.9h0l-21.53-.65,9.35.52c15.74.79,32,1.21,48.7,1.23ZM252.5,96.5C192,96.5,142.74,105.58,141,116.9c.39,2.41,2.9,4.71,7.21,6.86.85.42,1.76.84,2.74,1.25h0c8,3.33,20.35,6.24,35.82,8.49,19.77,2.89,44.61,4.71,71.76,5l3,0,2.51,0,2.27,0,3.81-.1,3-.1L276,138c.94,0,1.88-.07,2.81-.12,1.68-.07,3.33-.16,5-.25l2.45-.14,2.42-.15c1-.06,2.08-.13,3.11-.21l.69,0,3.06-.23c1.12-.08,2.23-.18,3.33-.27h.07c1.13-.09,2.25-.19,3.35-.3,1.85-.17,3.67-.36,5.46-.55l2.42-.27,3.55-.42c1.17-.14,2.32-.3,3.46-.45l2.26-.31,2.21-.32,2.16-.33h0l.91-.15,1.18-.19,2-.34,2.66-.48c1.12-.21,2.23-.42,3.3-.64l1.3-.26,2.4-.52h0c1.43-.32,2.8-.65,4.12-1l1.21-.3.1,0,1.61-.43,2.41-.7.88-.27,1.71-.55.82-.28c.88-.3,1.73-.62,2.54-.93a40.26,40.26,0,0,0,5.54-2.6c3.54-2,5.45-4.23,5.45-6.5C364,105.9,314.08,96.5,252.5,96.5Z"/><path class="cls-5" d="M477.9,88.5c2.17,1.23,4.18,2.49,6,3.76l.15.1"/><path class="cls-6" d="M214.19,169.4h0l-21.53-.65,9.35.52c15.74.79,32,1.21,48.7,1.23Z"/><path class="cls-7" d="M132.61,163l-.93-.09h0l.91.12c18.61,2.5,38.71,4.43,59.9,5.7"/><path class="cls-8" d="M364,117.5c0,2.27-1.91,4.46-5.45,6.5,0-11.6-47.08-21-105.15-21-46.65,0-86.2,6.07-100,14.47-3.25,2-5.06,4.09-5.18,6.29-4.31-2.15-6.82-4.45-7.21-6.86C142.74,105.58,192,96.5,252.5,96.5,314.08,96.5,364,105.9,364,117.5Z"/><path class="cls-9" d="M389.75,116.25c0,6-13.15,11.4-34.57,15.39-22.63,4.23-54.5,6.86-89.8,6.86q-3.42,0-6.79,0c41.67-.42,77.25-5.15,94.42-11.87a40.26,40.26,0,0,0,5.54-2.6c3.54-2,5.45-4.23,5.45-6.5,0-11.6-49.92-21-111.5-21C192,96.5,142.74,105.58,141,116.9a4.63,4.63,0,0,1,0-.65C141,104,196.68,94,265.38,94S389.75,104,389.75,116.25Z"/><path class="cls-10" d="M20,92.33l.61-3.83C26.43,70.57,73.58,55.18,141,47h0q13-1.56,26.91-2.77C194,42,222.32,40.76,252,40.76h3.76c1.9,0,3.79,0,5.68,0l5.17,0q15,.21,29.35.83c1.85.07,3.69.16,5.52.25h.1q3.2.15,6.35.33l3.17.18q2.49.13,4.95.3l4.44.29,1,.07,5.13.37,3.06.24,3,.24,6,.52,2.38.22,1,.09,5.15.5,3.21.33q4.08.42,8.07.89c69.73,8,118.79,23.67,124.74,42l.58,3c0,.26,0,.53,0,.79-1.82-1.27-3.83-2.53-6-3.76C454.65,75.3,412,64.56,358.55,58.35,345,56.77,330.78,55.49,316,54.53c-20.4-1.32-41.86-2-64-2-101.52,0-188.62,14.84-225.9,36Z"/><path class="cls-11" d="M151,125h-2.62a4,4,0,0,1-.13-1,1.92,1.92,0,0,1,0-.24C149.11,124.18,150,124.6,151,125Z"/><path class="cls-12" d="M297,119c0,1.67-7.78,3.16-19.91,4.12-8.9.71-20.13,1.13-32.34,1.13-28,0-50.84-2.21-52.18-5a.51.51,0,0,1-.07-.26c0-2.9,23.39-5.25,52.25-5.25S297,116.1,297,119Z"/><polygon class="cls-13" points="506.08 482.5 0 482.5 127.29 175.83 132.47 163.35 132.59 163.05 132.61 163.01 138.63 148.5 144.86 133.5 148.38 125.02 151 125.01 151.01 125.01 337.6 131.07 337.61 131.07 355.18 131.64 355.98 133.5 362.43 148.5 368.63 162.92 368.83 163.39 374.18 175.83 506.08 482.5"/><path class="cls-14" d="M253.4,103c-46.65,0-86.2,6.07-100,14.47-3.25,2-5.06,4.09-5.18,6.29.85.42,1.76.84,2.74,1.25h0c8,3.33,20.35,6.24,35.82,8.49,19.77,2.89,44.61,4.71,71.76,5l3,0,2.51,0,2.27,0,3.81-.1,3-.1L276,138c.94,0,1.88-.07,2.81-.12,1.68-.07,3.33-.16,5-.25l2.45-.14,2.42-.15c1-.06,2.08-.13,3.11-.21l.69,0,3.06-.23c1.12-.08,2.23-.18,3.33-.27h.07c1.13-.09,2.25-.19,3.35-.3,1.85-.17,3.67-.36,5.46-.55l2.42-.27,3.55-.42c1.17-.14,2.32-.3,3.46-.45l2.26-.31,2.21-.32,2.16-.33h0l.91-.15,1.18-.19,2-.34,2.66-.48c1.12-.21,2.23-.42,3.3-.64l1.3-.26,2.4-.52h0c1.43-.32,2.8-.65,4.12-1l1.21-.3.1,0,1.61-.43,2.41-.7.88-.27,1.71-.55.82-.28c.88-.3,1.73-.62,2.54-.93a40.26,40.26,0,0,0,5.54-2.6C358.55,112.4,311.47,103,253.4,103Zm-8.65,10.75c28.86,0,52.25,2.35,52.25,5.25,0,1.67-7.78,3.16-19.91,4.12-8.9.71-20.13,1.13-32.34,1.13-28,0-50.84-2.21-52.18-5a.51.51,0,0,1-.07-.26C192.5,116.1,215.89,113.75,244.75,113.75Z"/><path class="cls-15" d="M255.5.66C251.83.18,249.7,0,249.7,0,176.23,1,141,47,141,47h0c6.12-1.25,15.48-2.15,26.91-2.77C194,42,222.32,40.76,252,40.76h3.55"/><polygon class="cls-16" points="201.99 169.27 201.97 169.42 156.67 482.5 332 482.5 278.24 170.17 278.23 170.08 201.99 169.27"/><polygon class="cls-17" points="278.23 170.08 278.24 170.17 332 482.5 444 482.5 291.33 169.74 290.35 169.66 290.33 169.66 290.3 169.66 278.23 170.08"/><polygon class="cls-18" points="506.08 482.5 444 482.5 294.3 175.83 291.33 169.74 293.95 169.51 368.63 162.92 368.83 163.39 374.18 175.83 506.08 482.5"/><path class="cls-19" d="M255.5.66a242.53,242.53,0,0,1,46,10.62C306.35,13,311.23,14.85,316,17c14.8,6.72,28.5,16,36.67,28.68l-2.19-.09-3.21-.33-5.15-.5-1-.09-2.38-.22-6-.52-3-.24-3.06-.24-5.13-.37-1-.07L316,42.75q-2.46-.16-4.95-.3l-3.17-.18q-3.15-.18-6.35-.33h-.1c-1.83-.09-3.67-.18-5.52-.25q-14.39-.61-29.35-.83l-5.17,0-5.68,0h-.21"/><path class="cls-20" d="M316,42.75l4.44.29,1,.07,5.13.37,3.06.24,3,.24,6,.52,2.38.22,1,.09,5.15.5,3.21.33,2.19.09C344.5,33,330.8,23.75,316,17"/><polygon class="cls-21" points="201.99 169.27 201.97 169.42 156.67 482.5 86 482.5 192.44 168.92 192.5 168.75 192.64 168.75 201.99 169.27"/><ellipse class="cls-22" cx="253.04" cy="482.5" rx="253.04" ry="47.29"/><ellipse class="cls-23" cx="170.87" cy="347.89" rx="32.5" ry="2" transform="matrix(0.16, -0.99, 0.99, 0.16, -199.62, 461.72)"/><ellipse class="cls-23" cx="312.08" cy="372.56" rx="3.07" ry="41.71" transform="translate(-61.17 61.31) rotate(-10.22)"/><ellipse class="cls-23" cx="291.33" cy="347.89" rx="2" ry="32.5" transform="translate(-28.25 25.76) rotate(-4.83)"/><ellipse class="cls-23" cx="390.45" cy="347.89" rx="2.84" ry="50.31" transform="translate(-116.53 219.62) rotate(-27.5)"/><ellipse class="cls-24" cx="321.94" cy="240.46" rx="2" ry="32.5" transform="translate(-77.1 193.19) rotate(-30)"/><ellipse class="cls-25" cx="349.45" cy="260.56" rx="2" ry="32.5" transform="translate(-80.83 190.82) rotate(-27.5)"/><ellipse class="cls-26" cx="184.83" cy="260.56" rx="32.5" ry="2" transform="translate(-120.17 355.58) rotate(-71.95)"/><ellipse class="cls-27" cx="200.66" cy="283.98" rx="32.5" ry="2" transform="translate(-111.43 437.31) rotate(-80.92)"/><ellipse class="cls-28" cx="256.71" cy="249.86" rx="3.21" ry="53.9"/><circle class="cls-29" cx="184.83" cy="143.48" r="4"/><ellipse class="cls-30" cx="184.83" cy="165.84" rx="8.63" ry="5" transform="translate(-55.03 230.11) rotate(-56.9)"/><circle class="cls-31" cx="156.67" cy="169.27" r="6.25"/><ellipse class="cls-32" cx="166.87" cy="195.96" rx="9.34" ry="2.5" transform="translate(-81.84 262.24) rotate(-64.51)"/><ellipse class="cls-33" cx="332" cy="165.83" rx="3" ry="11.72" transform="translate(-38.44 188.22) rotate(-30)"/><ellipse class="cls-34" cx="304.08" cy="162.92" rx="1.5" ry="11.5" transform="translate(-35.21 100.56) rotate(-17.77)"/><ellipse class="cls-35" cx="316" cy="184.17" rx="2" ry="9.5" transform="translate(-32.75 73.96) rotate(-12.7)"/><circle class="cls-36" cx="244.34" cy="132.23" r="4"/><ellipse class="cls-37" cx="259.91" cy="125.02" rx="2" ry="7.21" transform="translate(-27.69 146.71) rotate(-30)"/><ellipse class="cls-38" cx="166.87" cy="133.5" rx="1.5" ry="7.63"/><ellipse class="cls-39" cx="240.11" cy="175.52" rx="2.5" ry="9.51"/><ellipse class="cls-40" cx="268.15" cy="148.5" rx="2.5" ry="16.03"/><ellipse class="cls-41" cx="224.86" cy="191.93" rx="2.5" ry="6.49"/><circle class="cls-42" cx="263.79" cy="180.25" r="5.25"/><ellipse class="cls-43" cx="216.64" cy="162.92" rx="15.62" ry="3" transform="matrix(0.25, -0.97, 0.97, 0.25, 3.92, 330.92)"/><ellipse class="cls-44" cx="234" cy="148.5" rx="2" ry="7.87"/></g></g></svg>