<svg xmlns="http://www.w3.org/2000/svg" xmlns:xlink="http://www.w3.org/1999/xlink" viewBox="0 0 394.56 441.9"><defs><style>.cls-1{isolation:isolate;}.cls-2{fill:url(#linear-gradient);}.cls-3{fill:url(#linear-gradient-2);}.cls-4{fill:url(#linear-gradient-3);}.cls-5{fill:#3a31d8;opacity:0.8;mix-blend-mode:soft-light;}.cls-6{fill:url(#linear-gradient-4);}.cls-7{fill:#585acc;}.cls-8{fill:#6d6dd0;}.cls-9{fill:url(#linear-gradient-5);}.cls-10{fill:url(#linear-gradient-6);}.cls-11{fill:url(#linear-gradient-7);}.cls-12{fill:url(#linear-gradient-8);}.cls-13{fill:url(#linear-gradient-9);}.cls-14{fill:url(#linear-gradient-10);}.cls-15{fill:url(#linear-gradient-11);}.cls-16{fill:url(#linear-gradient-12);}.cls-17{fill:none;}.cls-18{fill:url(#linear-gradient-13);}.cls-19{fill:url(#linear-gradient-14);}.cls-20{fill:url(#linear-gradient-15);}.cls-21{fill:url(#linear-gradient-16);}.cls-22{fill:url(#linear-gradient-17);}.cls-23{fill:url(#linear-gradient-18);}.cls-24{fill:url(#linear-gradient-19);}.cls-25{fill:url(#linear-gradient-20);}.cls-26{fill:url(#linear-gradient-21);}.cls-27{fill:url(#linear-gradient-22);}.cls-28,.cls-34{opacity:0.5;}.cls-29{fill:url(#linear-gradient-23);}.cls-30{fill:url(#linear-gradient-24);}.cls-31{fill:url(#linear-gradient-25);}.cls-32{fill:url(#linear-gradient-26);}.cls-33{fill:url(#linear-gradient-27);}.cls-34,.cls-35{fill:#00c;}</style><linearGradient id="linear-gradient" x1="25.9" y1="61.41" x2="25.9" y2="154.54" gradientUnits="userSpaceOnUse"><stop offset="0" stop-color="#fff"/><stop offset="0" stop-color="#fefeff"/><stop offset="0.17" stop-color="#b9b6f1"/><stop offset="0.33" stop-color="#827de6"/><stop offset="0.46" stop-color="#5b54df"/><stop offset="0.56" stop-color="#433ada"/><stop offset="0.62" stop-color="#3a31d8"/><stop offset="0.76" stop-color="#372fd7"/><stop offset="0.84" stop-color="#2f28d6"/><stop offset="0.91" stop-color="#211cd3"/><stop offset="0.97" stop-color="#0c0acf"/><stop offset="1" stop-color="#00c"/></linearGradient><linearGradient id="linear-gradient-2" x1="367.53" y1="62.71" x2="367.53" y2="153.57" xlink:href="#linear-gradient"/><linearGradient id="linear-gradient-3" x1="299.64" y1="28.33" x2="81.54" y2="154.25" gradientUnits="userSpaceOnUse"><stop offset="0" stop-color="#fff"/><stop offset="0.07" stop-color="#cecbf5"/><stop offset="0.14" stop-color="#a19dec"/><stop offset="0.21" stop-color="#7c76e5"/><stop offset="0.27" stop-color="#5f58df"/><stop offset="0.34" stop-color="#4b42db"/><stop offset="0.41" stop-color="#3e35d9"/><stop offset="0.47" stop-color="#3a31d8"/><stop offset="0.66" stop-color="#372fd7"/><stop offset="0.78" stop-color="#2f28d6"/><stop offset="0.87" stop-color="#211cd3"/><stop offset="0.96" stop-color="#0c0acf"/><stop offset="1" stop-color="#00c"/></linearGradient><linearGradient id="linear-gradient-4" x1="112.31" y1="72.14" x2="280.94" y2="364.21" gradientUnits="userSpaceOnUse"><stop offset="0" stop-color="#fff"/><stop offset="0.02" stop-color="#f3f3fd"/><stop offset="0.11" stop-color="#c8c5f4"/><stop offset="0.2" stop-color="#a29eed"/><stop offset="0.3" stop-color="#827ce6"/><stop offset="0.4" stop-color="#6761e1"/><stop offset="0.51" stop-color="#534bdd"/><stop offset="0.63" stop-color="#453cda"/><stop offset="0.78" stop-color="#3d34d9"/><stop offset="1" stop-color="#3a31d8"/></linearGradient><linearGradient id="linear-gradient-5" x1="51.35" y1="209.74" x2="343.55" y2="209.74" gradientUnits="userSpaceOnUse"><stop offset="0" stop-color="#3a31d8"/><stop offset="0.24" stop-color="#332bd7"/><stop offset="0.58" stop-color="#201bd3"/><stop offset="0.98" stop-color="#0201cc"/><stop offset="1" stop-color="#00c"/></linearGradient><linearGradient id="linear-gradient-6" x1="55.86" y1="333.75" x2="147.51" y2="386.67" gradientUnits="userSpaceOnUse"><stop offset="0" stop-color="#00c"/><stop offset="0.19" stop-color="#0908ce" stop-opacity="0.95"/><stop offset="0.49" stop-color="#231ed3" stop-opacity="0.82"/><stop offset="0.7" stop-color="#3a31d8" stop-opacity="0.7"/></linearGradient><linearGradient id="linear-gradient-7" x1="247.68" y1="340.62" x2="320.66" y2="382.76" gradientUnits="userSpaceOnUse"><stop offset="0.04" stop-color="#fff"/><stop offset="0.04" stop-color="#f3f2fd"/><stop offset="0.06" stop-color="#cfcdf6"/><stop offset="0.08" stop-color="#b1adef"/><stop offset="0.1" stop-color="#9893eb"/><stop offset="0.12" stop-color="#857fe7"/><stop offset="0.15" stop-color="#7771e4"/><stop offset="0.18" stop-color="#6f68e2"/><stop offset="0.24" stop-color="#6d66e2"/><stop offset="0.43" stop-color="#5d56df"/><stop offset="0.79" stop-color="#443bda"/><stop offset="1" stop-color="#3a31d8"/></linearGradient><linearGradient id="linear-gradient-8" x1="82.16" y1="415.88" x2="312.67" y2="415.88" xlink:href="#linear-gradient-5"/><linearGradient id="linear-gradient-9" x1="148.1" y1="354.81" x2="251.25" y2="414.36" gradientUnits="userSpaceOnUse"><stop offset="0" stop-color="#00c"/><stop offset="0.04" stop-color="#0909ce"/><stop offset="0.1" stop-color="#2020d2"/><stop offset="0.18" stop-color="#4747da"/><stop offset="0.27" stop-color="#7c7ce5"/><stop offset="0.37" stop-color="#c0c0f2"/><stop offset="0.45" stop-color="#fff"/><stop offset="0.46" stop-color="#f7f7fd"/><stop offset="0.46" stop-color="#d0cef6"/><stop offset="0.47" stop-color="#aca8ef"/><stop offset="0.48" stop-color="#8d88e8"/><stop offset="0.5" stop-color="#736ce3"/><stop offset="0.51" stop-color="#5e56df"/><stop offset="0.52" stop-color="#4e45dc"/><stop offset="0.54" stop-color="#423ada"/><stop offset="0.57" stop-color="#3c33d8"/><stop offset="0.64" stop-color="#3a31d8"/><stop offset="0.81" stop-color="#3e35d9" stop-opacity="0.99"/><stop offset="0.87" stop-color="#4d45dc" stop-opacity="0.95"/><stop offset="0.91" stop-color="#6861e1" stop-opacity="0.88"/><stop offset="0.94" stop-color="#8d88e8" stop-opacity="0.79"/><stop offset="0.97" stop-color="#bdbaf2" stop-opacity="0.67"/><stop offset="1" stop-color="#f9f8fe" stop-opacity="0.52"/><stop offset="1" stop-color="#fff" stop-opacity="0.5"/></linearGradient><linearGradient id="linear-gradient-10" x1="144.93" y1="354.92" x2="255.64" y2="418.84" gradientUnits="userSpaceOnUse"><stop offset="0.04" stop-color="#fff"/><stop offset="0.13" stop-color="#6d66e2"/><stop offset="0.71" stop-color="#00c"/><stop offset="1" stop-color="#3a31d8"/></linearGradient><linearGradient id="linear-gradient-11" x1="12.26" y1="152.27" x2="12.26" y2="267.54" gradientUnits="userSpaceOnUse"><stop offset="0" stop-color="#fff"/><stop offset="0.01" stop-color="#f4f4fd"/><stop offset="0.06" stop-color="#c3c0f3"/><stop offset="0.12" stop-color="#9994eb"/><stop offset="0.17" stop-color="#7771e4"/><stop offset="0.22" stop-color="#5c55df"/><stop offset="0.27" stop-color="#4941db"/><stop offset="0.33" stop-color="#3e35d9"/><stop offset="0.38" stop-color="#3a31d8"/><stop offset="0.6" stop-color="#372fd7"/><stop offset="0.74" stop-color="#2f28d6"/><stop offset="0.85" stop-color="#211cd3"/><stop offset="0.95" stop-color="#0c0acf"/><stop offset="1" stop-color="#00c"/></linearGradient><linearGradient id="linear-gradient-12" x1="381.55" y1="152.61" x2="381.55" y2="266.08" xlink:href="#linear-gradient-11"/><linearGradient id="linear-gradient-13" x1="367.31" y1="48.11" x2="367.31" y2="63.19" gradientUnits="userSpaceOnUse"><stop offset="0" stop-color="#00c"/><stop offset="0.03" stop-color="#0c0acf"/><stop offset="0.09" stop-color="#211cd3"/><stop offset="0.16" stop-color="#2f28d6"/><stop offset="0.24" stop-color="#372fd7"/><stop offset="0.38" stop-color="#3a31d8"/><stop offset="0.44" stop-color="#433ada"/><stop offset="0.54" stop-color="#5b54df"/><stop offset="0.67" stop-color="#827de6"/><stop offset="0.83" stop-color="#b9b6f1"/><stop offset="1" stop-color="#fefeff"/><stop offset="1" stop-color="#fff"/></linearGradient><linearGradient id="linear-gradient-14" x1="367.05" y1="1.68" x2="367.05" y2="14.6" gradientUnits="userSpaceOnUse"><stop offset="0" stop-color="#fff"/><stop offset="0.19" stop-color="#fbcdfb"/><stop offset="0.48" stop-color="#f583f5"/><stop offset="0.72" stop-color="#f14df1"/><stop offset="0.9" stop-color="#ee2cee"/><stop offset="1" stop-color="#ed1fed"/></linearGradient><linearGradient id="linear-gradient-15" x1="348.68" y1="28.82" x2="385.95" y2="28.82" gradientUnits="userSpaceOnUse"><stop offset="0" stop-color="#fff"/><stop offset="0" stop-color="#fffeff"/><stop offset="0.04" stop-color="#fbcffb"/><stop offset="0.09" stop-color="#f8a6f8"/><stop offset="0.14" stop-color="#f582f5"/><stop offset="0.19" stop-color="#f263f2"/><stop offset="0.24" stop-color="#f04af0"/><stop offset="0.31" stop-color="#ef37ef"/><stop offset="0.38" stop-color="#ee29ee"/><stop offset="0.47" stop-color="#ed21ed"/><stop offset="0.64" stop-color="#ed1fed"/></linearGradient><linearGradient id="linear-gradient-16" x1="348.68" y1="37.13" x2="385.95" y2="37.13" xlink:href="#linear-gradient-15"/><linearGradient id="linear-gradient-17" x1="348.68" y1="46.65" x2="385.95" y2="46.65" xlink:href="#linear-gradient-15"/><linearGradient id="linear-gradient-18" x1="25.9" y1="46.23" x2="25.9" y2="61.31" xlink:href="#linear-gradient-13"/><linearGradient id="linear-gradient-19" x1="22.84" y1="0.86" x2="29.3" y2="12.05" xlink:href="#linear-gradient-14"/><linearGradient id="linear-gradient-20" x1="7.26" y1="26.94" x2="44.54" y2="26.94" xlink:href="#linear-gradient-15"/><linearGradient id="linear-gradient-21" x1="7.26" y1="35.25" x2="44.54" y2="35.25" xlink:href="#linear-gradient-15"/><linearGradient id="linear-gradient-22" x1="7.26" y1="44.77" x2="44.54" y2="44.77" xlink:href="#linear-gradient-15"/><linearGradient id="linear-gradient-23" x1="189.02" y1="379.7" x2="207.14" y2="390.16" gradientUnits="userSpaceOnUse"><stop offset="0.04" stop-color="#fff"/><stop offset="0.56" stop-color="#3a31d8"/><stop offset="1" stop-color="#00c"/></linearGradient><linearGradient id="linear-gradient-24" x1="203.5" y1="381.02" x2="216.9" y2="388.76" gradientUnits="userSpaceOnUse"><stop offset="0.02" stop-color="#fff"/><stop offset="0.46" stop-color="#3a31d8"/><stop offset="1" stop-color="#00c"/></linearGradient><linearGradient id="linear-gradient-25" x1="172.57" y1="379.52" x2="172.57" y2="387.95" gradientTransform="translate(321.89 -9.63) rotate(45)" gradientUnits="userSpaceOnUse"><stop offset="0.02" stop-color="#fff"/><stop offset="0.42" stop-color="#3a31d8"/><stop offset="1" stop-color="#00c"/></linearGradient><linearGradient id="linear-gradient-26" x1="185.62" y1="375.49" x2="185.62" y2="394.66" gradientUnits="userSpaceOnUse"><stop offset="0.03" stop-color="#fff"/><stop offset="0.09" stop-color="#d5d3f7"/><stop offset="0.16" stop-color="#aca8ef"/><stop offset="0.23" stop-color="#8983e8"/><stop offset="0.3" stop-color="#6c65e2"/><stop offset="0.38" stop-color="#564ede"/><stop offset="0.46" stop-color="#463eda"/><stop offset="0.55" stop-color="#3d34d9"/><stop offset="0.67" stop-color="#3a31d8"/><stop offset="1" stop-color="#00c"/></linearGradient><linearGradient id="linear-gradient-27" x1="218.07" y1="383.74" x2="226.5" y2="383.74" gradientTransform="translate(336.45 -44.78) rotate(45)" gradientUnits="userSpaceOnUse"><stop offset="0.04" stop-color="#fff"/><stop offset="0.43" stop-color="#3a31d8"/><stop offset="1" stop-color="#00c"/></linearGradient></defs><title>robotweb</title><g class="cls-1"><g id="Layer_2" data-name="Layer 2"><g id="details"><path class="cls-2" d="M32.66,127.84h0q.09-31.92.18-63.84a10.39,10.39,0,0,0-6.58-2.58A10.52,10.52,0,0,0,19,64.24l.59,90.3,5.14-2.27"/><path class="cls-3" d="M368.74,153.57h5.73v-88a10.52,10.52,0,0,0-7.3-2.83,10.39,10.39,0,0,0-6.58,2.58l.18,63.84h0"/><path class="cls-4" d="M339.32,109.93h0S339.84,86,308.51,51,193.84,16.71,193.84,16.71C123.51,19,99.17,40,99.17,40c-31.18,25.51-41,49.68-43.33,68.1q-.09.66-.16,1.33l4.73-1.3h0"/><path class="cls-5" d="M250.25,92.89A353.44,353.44,0,0,0,151.9,92l1.17-71.36a243,243,0,0,1,96.37,2Z"/><path class="cls-6" d="M24.53,152.27a147.49,147.49,0,0,1,14.64-37.9c6.62-2.08,13.7-4.17,21.24-6.2h0a523.39,523.39,0,0,1,278.9,1.76q7.28,2.05,13.85,4.11a155.58,155.58,0,0,1,11.17,24c2.85,7.81,8.23,24.46,9.5,66,1,33.85,1.66,54.29-5.52,81.29a201.56,201.56,0,0,1-13.48,36.21A427.29,427.29,0,0,1,185.34,351a426.3,426.3,0,0,1-141.5-29,47,47,0,0,1-10.5-11.5c-4.72-7.35-5.93-14.41-7.5-23.5-1-5.71-1.1-8.65-2-19.5-1.29-16.25-1.61-17-2.26-25.73a413.2,413.2,0,0,1-1-50.52A366.21,366.21,0,0,1,24.53,152.27Z"/><path class="cls-7" d="M35.35,156.08a165.48,165.48,0,0,1,5.9-19.41,146.11,146.11,0,0,1,7.79-17c6.19-2,12.81-4,19.87-5.95h0a477.66,477.66,0,0,1,260.87,1.69q6.8,2,13,3.94a151.08,151.08,0,0,1,10.45,23c2.67,7.49,7.7,23.47,8.89,63.33,1,32.48,1.55,52.1-5.16,78a196.56,196.56,0,0,1-12.61,34.75,390.8,390.8,0,0,1-158.54,28.31A390.14,390.14,0,0,1,53.41,319a44.65,44.65,0,0,1-9.82-11c-5.55-8.87-6.51-17.53-7-22.55-.73-7.24-1.33-13.43-1.83-18.71,0-.06,0-.12,0-.18C28.38,229.68,35.35,156.08,35.35,156.08Z"/><path class="cls-8" d="M344.6,282a248.13,248.13,0,0,1-34,13.19c-34.29,10.46-63.29,11-114.66,12.07-6.74.14-15.85.22-26.73,0s-20.22-.41-32-1.46c-14.17-1.27-12.22-2-40.8-6.22-22.51-3.3-29.35-3.66-37.64-9.87a46.46,46.46,0,0,1-12-13.53,574.06,574.06,0,0,1-2.81-72c.54-22,.59-40.65,9.14-62.17,1.51-3.79,2.93-6.85,3.94-8.91,1.49-.67,3.7-1.64,6.41-2.73,19.26-7.71,34.22-8.9,46.28-11,26-4.59,46.28-5.08,85.82-5.86,0,0,66.79-1.33,124.05,11.77A48.11,48.11,0,0,1,331,129.51a42.6,42.6,0,0,1,8.79,6.58A276,276,0,0,1,344.6,282Z"/><path class="cls-9" d="M336.38,275a240.93,240.93,0,0,1-32.21,12c-32.5,9.53-60,10.06-108.67,11-6.39.12-15,.2-25.33,0s-19.16-.37-30.33-1.33c-13.42-1.15-11.58-1.84-38.67-5.67-21.33-3-27.81-3.33-35.67-9a42.88,42.88,0,0,1-11.33-12.33A503.42,503.42,0,0,1,51.51,204c.63-24.41,2.88-40.13,8.67-56.67,1.27-3.64,2.47-6.61,3.33-8.67a394.1,394.1,0,0,1,50.33-12c24.63-4.19,43.86-4.63,81.33-5.35,0,0,63.29-1.21,117.56,10.73A46.66,46.66,0,0,1,323.51,136a40.27,40.27,0,0,1,8.33,6,242.37,242.37,0,0,1,4.54,133Z"/><path class="cls-10" d="M151.61,348.74l-.15.31a214.37,214.37,0,0,0-9.81,24.1c-6.18,18.29-5.82,25.48-4.12,30.61a.5.5,0,0,0,0,.13l-5.08-.1q-5.94-.89-12.12-2c-1.2-.2-2.41-.42-3.62-.64l-1.28-.09a69.18,69.18,0,0,1-31.54-11,0,0,0,0,0,0,0,57.49,57.49,0,0,1-10.64-9.16,65.41,65.41,0,0,1-5.77-7.55c-4.71-7.34-8.85-24-8.18-45.63a353.21,353.21,0,0,0,40.59,12.47A353.34,353.34,0,0,0,151.61,348.74Z"/><path class="cls-7" d="M200.64,368.45v33a3.82,3.82,0,0,1-5.13,0v-33S197.56,365.77,200.64,368.45Z"/><path class="cls-7" d="M202.18,351.23h0Z"/><path class="cls-11" d="M326.51,372.37a88.53,88.53,0,0,1-4.41,7.68,78,78,0,0,1-4.59,6.32c-2,1.08-4.35,2.26-6.9,3.5l-.94.44c-3.83,1.82-8.37,3.84-13.55,5.86l-1.54.59c-1.39.52-2.82,1.05-4.29,1.57-.78.28-1.58.56-2.39.83-1.08.36-2.19.73-3.32,1.09l-1.41.46c-.66.21-1.31.39-2,.58l-.07,0-.07,0q-1,.3-1.92.57l-1.08.31-1.64.46-.43.11-.06,0c-1.29.34-2.59.7-3.86,1l-2.88.69-2.07.47-1.64.36q-2.62.54-5.21,1l-5.62-.11a50.41,50.41,0,0,0,1.52-10.85c.26-8.73-1.86-15.29-5.66-26.66a199.28,199.28,0,0,0-7.56-19.23c-.06-.12-.11-.25-.17-.37a344.71,344.71,0,0,0,51.08-8A344.59,344.59,0,0,0,334.25,329C333.38,351,329.2,367,326.51,372.37Z"/><path class="cls-12" d="M312.51,402.37c-2,16.56-23,30.88-52.25,35.35-9.78,1.5-22.76,2.81-49.09,3.65-19.86.64-34.17,1-53.33-.66a342.41,342.41,0,0,1-42.33-6.34c-2.72-.55-20.44-4.41-28.67-18.66a30.78,30.78,0,0,1-4.67-16.34,28.86,28.86,0,0,1,1.75-9.29,0,0,0,0,1,0,0,78.09,78.09,0,0,0,22.65,9.47c2.23.53,3.72.77,8.89,1.53l4.9.73c5.31.79,9.16,1.38,12.09,1.83l5.07.11a.5.5,0,0,0,0,.13c.06.2.13.39.2.58a.36.36,0,0,0,0,.09,27.05,27.05,0,0,0,3.7,6.81A335.69,335.69,0,0,0,253.17,411c.38-1.07.79-2.3,1.17-3.7,0,0,0,0,0,0,.09-.34.19-.69.28-1l5.62.12c1.71-.31,3.45-.66,5.22-1l1.64-.36,2.07-.47,2.88-.69c1.27-.31,2.57-.67,3.86-1l.06,0,.43-.11,1.64-.46,1.08-.31q1-.27,1.92-.57l.07,0,.07,0c1.14-.34,2.28-.7,3.38-1s2.24-.73,3.32-1.09c.81-.27,1.61-.55,2.39-.83,1.47-.52,2.9-1,4.29-1.57l1.54-.59c5.18-2,9.72-4,13.55-5.86l.94-.45h0A24.8,24.8,0,0,1,312.51,402.37Z"/><path class="cls-13" d="M195.51,368.45v33a3.82,3.82,0,0,0,5.13,0v-33C197.56,365.77,195.51,368.45,195.51,368.45Zm0,0v33a3.82,3.82,0,0,0,5.13,0v-33C197.56,365.77,195.51,368.45,195.51,368.45Zm55,.26a199.28,199.28,0,0,0-7.56-19.23c-.06-.12-.11-.25-.17-.37l-1,.09c-1.29.13-2.6.25-3.92.36l-.92.08-4.06.32-1,.08-3.88.27h-.2l-2.58.15q-3.9.24-7.91.4l-4.89.17c-1.69,0-3.39.09-5.11.12s-3.43.06-5.17.07h-3.11c-1.24,0-2.47,0-3.7,0-1.56,0-3.1,0-4.64-.06l-1.48,0-2.84-.07-1.63-.05-2.16-.07-2.35-.09c-1.88-.08-3.76-.17-5.62-.27q-6.63-.36-12.92-.89c-.85-.06-1.69-.14-2.53-.21l-2.14-.2-1.48-.14q-1.95-.18-3.87-.39h-.1l-.15.31a214.37,214.37,0,0,0-9.81,24.1c-6.18,18.29-5.82,25.48-4.12,30.61a.5.5,0,0,0,0,.13c.06.2.13.39.2.58a.36.36,0,0,0,0,.09,27.05,27.05,0,0,0,3.7,6.81A335.69,335.69,0,0,0,253.17,411c.38-1.07.79-2.3,1.17-3.7,0,0,0,0,0,0,.09-.34.19-.69.28-1,0,0,0,0,0,0a50.41,50.41,0,0,0,1.52-10.85C256.43,386.64,254.31,380.08,250.51,368.71Zm-48.75,33.73a7,7,0,0,1-7.5,0V366.52s3-2.92,7.5,0Zm-6.25-34v33a3.82,3.82,0,0,0,5.13,0v-33C197.56,365.77,195.51,368.45,195.51,368.45Zm0,0v33a3.82,3.82,0,0,0,5.13,0v-33C197.56,365.77,195.51,368.45,195.51,368.45Z"/><path class="cls-14" d="M255,369.94a212,212,0,0,0-8.33-20.81l-3.77.35a199.28,199.28,0,0,1,7.56,19.23c3.8,11.37,5.92,17.93,5.66,26.66a50.41,50.41,0,0,1-1.52,10.85s0,0,0,0c-.09.36-.19.71-.28,1,0,0,0,0,0,0-.38,1.4-.79,2.63-1.17,3.7a335.69,335.69,0,0,1-111.66.33,27.05,27.05,0,0,1-3.7-6.81.36.36,0,0,1,0-.09c-.07-.19-.14-.38-.2-.58a.5.5,0,0,1,0-.13c-1.7-5.13-2.06-12.32,4.12-30.61a214.37,214.37,0,0,1,9.81-24.1l-3-.31a223.87,223.87,0,0,0-10.73,25.92c-5.36,15.64-6.15,23.63-5.31,29l0,.14a21.44,21.44,0,0,0,1.1,4.12,29,29,0,0,0,4,7.34,366.88,366.88,0,0,0,120.31-.35,55.06,55.06,0,0,0,2.34-8.54,0,0,0,0,0,0,0,51.9,51.9,0,0,0,.88-8.07C261.43,389,259.14,382,255,369.94Z"/><path class="cls-15" d="M23.87,267.35c0,.06,0,.13,0,.19l-8.46-3.68a26.51,26.51,0,0,1-8.78-6.91C2.11,251.4,1,245.09.34,235.29c-1.06-15.79.77-15.41,0-30.5,0-.53,0-10.27,0-29.75a18.31,18.31,0,0,1,1.75-8.25,18.69,18.69,0,0,1,6.5-7.25l15.94-7.27q-.63,2.57-1.19,5.27c-3.17,15.49-3.12,29.24-2,79.5C21.34,237,21.46,242.48,23.87,267.35Z"/><path class="cls-16" d="M393,248.32c-.17,1.22-1.68,10.83-10.2,15.47A19.48,19.48,0,0,1,372.35,266,454.48,454.48,0,0,0,374,209.51a454.49,454.49,0,0,0-5.48-56.9,29.83,29.83,0,0,1,24.68,16c.14,1.41.33,3.48.53,6,1.12,14.51.86,22.95.6,34.49C394.09,220.3,393.7,233.5,393,248.32Z"/><path class="cls-7" d="M364.55,27.25q.06-6.32.1-12.65h4.88l.21,12.56"/><path class="cls-17" d="M364.47,38.76c0,2.11,0,4.22-.05,6.32"/><path class="cls-17" d="M370,45c0-2.13-.07-4.25-.1-6.38"/><path class="cls-18" d="M370.1,48.11q.12,7.53.25,15a10.1,10.1,0,0,0-3.69-.43,10.46,10.46,0,0,0-2.38.46q.06-7.45.11-14.91"/><path class="cls-17" d="M364.53,30.46c0,1.7,0,3.4,0,5.1"/><path class="cls-17" d="M369.88,35.47l-.09-5.18"/><circle class="cls-19" cx="367.05" cy="8.14" r="6.46"/><path class="cls-20" d="M386,28.85c0-.59-4.26-1.28-7.09-1.58-3.42-.37-4.86-.18-11.69-.06-5.45.1-7.06,0-11,.28s-7.45.49-7.49,1.07,4.12,1.45,7.16,1.81,4.4.21,11.17,0c5.58-.17,7.74-.17,12-.5C383,29.57,385.93,29.33,386,28.85Z"/><path class="cls-21" d="M386,37.16c0-.59-4.26-1.28-7.09-1.58-3.42-.37-4.86-.18-11.69-.06-5.45.1-7.06,0-11,.28s-7.45.49-7.49,1.07,4.12,1.45,7.16,1.81,4.4.21,11.17,0c5.58-.17,7.74-.17,12-.5C383,37.88,385.93,37.64,386,37.16Z"/><path class="cls-22" d="M386,46.68c0-.59-4.26-1.28-7.09-1.58-3.42-.37-4.86-.18-11.69-.06-5.45.1-7.06,0-11,.28s-7.45.49-7.49,1.07,4.12,1.45,7.16,1.81,4.4.21,11.17,0c5.58-.17,7.74-.17,12-.5C383,47.39,385.93,47.16,386,46.68Z"/><path class="cls-7" d="M23.48,25.28l.21-12.56h4.88q0,6.33.1,12.65"/><path class="cls-7" d="M28.8,43.2c0-2.1,0-4.21-.05-6.32"/><path class="cls-17" d="M23.28,36.72c0,2.13-.06,4.25-.1,6.38"/><path class="cls-23" d="M28.83,46.4q0,7.45.11,14.91a10.46,10.46,0,0,0-2.38-.46,10.1,10.1,0,0,0-3.69.43q.13-7.53.25-15.05"/><path class="cls-17" d="M28.73,33.68c0-1.7,0-3.4,0-5.1"/><path class="cls-17" d="M23.43,28.41l-.09,5.18"/><circle class="cls-24" cx="26.07" cy="6.46" r="6.46"/><path class="cls-25" d="M7.26,27c0-.59,4.26-1.28,7.09-1.58,3.42-.37,4.86-.18,11.69-.06,5.45.1,7.06,0,11,.28s7.45.49,7.49,1.07-4.12,1.45-7.16,1.81-4.4.21-11.17,0c-5.58-.17-7.74-.17-12-.5C10.22,27.68,7.28,27.45,7.26,27Z"/><path class="cls-26" d="M7.26,35.27c0-.59,4.26-1.28,7.09-1.58,3.42-.37,4.86-.18,11.69-.06,5.45.1,7.06,0,11,.28s7.45.49,7.49,1.07-4.12,1.45-7.16,1.81-4.4.21-11.17,0c-5.58-.17-7.74-.17-12-.5C10.22,36,7.28,35.76,7.26,35.27Z"/><path class="cls-27" d="M7.26,44.79c0-.59,4.26-1.28,7.09-1.58,3.42-.37,4.86-.18,11.69-.06,5.45.1,7.06,0,11,.28s7.45.49,7.49,1.07S40.42,46,37.38,46.32s-4.4.21-11.17,0c-5.58-.17-7.74-.17-12-.5C10.22,45.51,7.28,45.28,7.26,44.79Z"/><rect class="cls-7" x="23.18" y="37.02" width="5.49" height="5.49"/><rect class="cls-7" x="23.87" y="28.41" width="4.8" height="4.8"/><rect class="cls-7" x="364.55" y="30.59" width="5.19" height="5.19"/><rect class="cls-7" x="364.55" y="38.9" width="5.24" height="5.24"/><path class="cls-7" d="M194.26,366.52v35.92a7,7,0,0,0,7.5,0V366.52C197.26,363.6,194.26,366.52,194.26,366.52Zm6.38,34.9a3.82,3.82,0,0,1-5.13,0v-33s2-2.68,5.13,0Z"/><path class="cls-28" d="M253.11,364.49s12.59,28.13,7.16,41.84l6.85-1.36s-2.61-38-5.95-40.48Z"/><path class="cls-29" d="M200.64,368.45v33a3.82,3.82,0,0,1-5.13,0v-33S197.56,365.77,200.64,368.45Z"/><path d="M200.64,368.45v33a3.82,3.82,0,0,1-5.13,0v-33S197.56,365.77,200.64,368.45Z"/><path class="cls-30" d="M214,383.95v9.93a13.11,13.11,0,0,1-7.5,0v-18a10.65,10.65,0,0,1,7.5,0Z"/><path d="M212.84,384.25v9.11a6.82,6.82,0,0,1-5.13,0V376.88a5.6,5.6,0,0,1,5.13,0Z"/><ellipse class="cls-31" cx="172.57" cy="383.74" rx="3.96" ry="4.45" transform="translate(-220.8 234.42) rotate(-45)"/><circle cx="172.29" cy="383.46" r="2.35" transform="translate(-220.69 234.14) rotate(-45)"/><path class="cls-32" d="M189.37,384.17v9.93a13.11,13.11,0,0,1-7.5,0v-18a10.65,10.65,0,0,1,7.5,0Z"/><path d="M188.26,384.48v9.11a6.82,6.82,0,0,1-5.13,0V377.11a5.6,5.6,0,0,1,5.13,0Z"/><ellipse class="cls-33" cx="222.28" cy="383.74" rx="3.96" ry="4.45" transform="translate(-206.24 269.57) rotate(-45)"/><circle cx="222.83" cy="383.74" r="2.35" transform="translate(-206.08 269.96) rotate(-45)"/><path class="cls-28" d="M311.11,407.89c-7.48,14.81-31.33,24.89-32.93,25.55l-.07,0h0c23.91-33.22-5.92-22.76-8.58-23.1s-8,8-10.67,11.34-115.67,1-120.67,0-7.33-14-7.33-14c-1.67,1.66-37-7.34-42-9.67s-4.92-8-4.92-8h0l18.57,8.37c1.15,1.59,30,5.33,30,5.33,0,2.92,5.12,11.46,5.12,11.46,59.44,10,120.31-.35,120.31-.35l2.34-8.54v0l.44-.08c8.56-1.77,47.19-15.32,49.78-16.33l.05,0,.07,0c.25-.11.49.68.73,1.92a0,0,0,0,0,0,0c.65,3.52,1.17,10.56,1.17,10.56"/><path class="cls-28" d="M100.33,339.69l10,2.87h0c.39.09.83.18,1.34.27,2.83.54,7.47,1.21,13.13,1.93,20.55,2.61,54.69,5.92,65.93,6.39l.66,0h.08a84,84,0,0,0,12,0h0c4.22-.26,11.93-.77,31.69-1.55l2.79-.11c1.65-.06,3.3-.15,5-.26a273.11,273.11,0,0,0,35.67-5,432.4,432.4,0,0,0,54.79-15l.33-.12.39-.14a.53.53,0,0,0,.16-.06h0c0,.38-.55,8.67-2.47,24,0,0,0,.05,0,.07a42.34,42.34,0,0,1-.95,5c-3.3,13.45-12.3,26.81-13.23,28.18l-.08.11-7.84,3.94c19.5-37.73-3.16-41.57-3.16-41.57-13.67,9.17-32.37,13.94-53.4,15.75-1.31.11-2.63.21-4,.29-31.87,2.17-68.6-2.1-101.21-8-1-.18-2-.35-2.93-.54-2.89-.53-5.74-1.08-8.55-1.63-39-7.7-70-17-76.1-18.9l-1.07-.33h0v-1.25l.06-6.38.36.12"/><path class="cls-34" d="M96.61,395.81s-2.56,20.67,0,30.45"/><path class="cls-35" d="M106.58,399.56s-2.93,26,0,32.09"/><path class="cls-35" d="M116.75,401.18s-4.24,28.19-1.24,33.19"/><path class="cls-35" d="M127.17,402.45s-2,28.5,0,34.21"/><path class="cls-35" d="M141.55,415.88c-1.14-.18-1.29,18.23,0,23"/><path class="cls-35" d="M162.17,417.77s-4.33,13.29,0,23.28"/><path class="cls-35" d="M183.12,419.79s-.06,17.65,2.5,22.12"/><path class="cls-35" d="M210.2,419.32s-1.7,16.27,2.64,22"/><path class="cls-35" d="M229.16,418.21s1.38,16.38,5.36,22.11"/><path class="cls-35" d="M249.51,416.37a75.29,75.29,0,0,1,3.6,22.32"/><path class="cls-35" d="M260.71,406.25s7.11,22.7,5.46,30.41"/><path class="cls-35" d="M278.06,402.21s6.22,23.06,5,29.44"/><path class="cls-35" d="M296.12,396.17s8.87,14.23,6.8,23.38"/></g></g></g></svg>